<?xml version="1.0" encoding="UTF-8" standalone="no" ?>
<!DOCTYPE svg PUBLIC "-//W3C//DTD SVG 1.1//EN" "http://www.w3.org/Graphics/SVG/1.1/DTD/svg11.dtd">
<svg xmlns="http://www.w3.org/2000/svg" xmlns:xlink="http://www.w3.org/1999/xlink" version="1.1" width="1200" height="900" viewBox="0 0 1200 900" xml:space="preserve">
<desc>Created with Fabric.js 5.2.4</desc>
<defs>
</defs>
<rect x="0" y="0" width="100%" height="100%" fill="transparent"></rect>
<g transform="matrix(1 0 0 1 600 450)" id="db45ba68-05be-4a8f-a69c-83b60f0d2a0a"  >
<rect style="stroke: none; stroke-width: 1; stroke-dasharray: none; stroke-linecap: butt; stroke-dashoffset: 0; stroke-linejoin: miter; stroke-miterlimit: 4; fill: rgb(255,255,255); fill-rule: nonzero; opacity: 1; visibility: hidden;" vector-effect="non-scaling-stroke"  x="-600" y="-450" rx="0" ry="0" width="1200" height="900" />
</g>
<g transform="matrix(0 0 0 0 0 0)" id="455b787c-ce49-49b6-9f24-c1f042b3e33d"  >
</g>
<g transform="matrix(1.56 0 0 1.56 625.65 422.64)"  >
<path style="stroke: rgb(0,0,0); stroke-width: 0; stroke-dasharray: none; stroke-linecap: butt; stroke-dashoffset: 0; stroke-linejoin: miter; stroke-miterlimit: 4; fill: rgb(58,125,87); fill-rule: nonzero; opacity: 1;" vector-effect="non-scaling-stroke"  transform=" translate(-255.68, -255.69)" d="M 410.3 231 L 421.6 219.7 L 387.70000000000005 185.79999999999998 L 325.6 123.69999999999999 L 291.7 89.8 L 280.4 101.1 L 257.79999999999995 123.69999999999999 L 58.6 322.9 C 48.2 333.29999999999995 40.6 346.2 36.400000000000006 360.29999999999995 L 1 480.7 C -1.5 489.09999999999997 0.8 498.2 7.1 504.4 C 13.399999999999999 510.59999999999997 22.4 512.9 30.799999999999997 510.5 L 151.1 475.1 C 165.2 470.90000000000003 178.1 463.3 188.5 452.90000000000003 L 387.7 253.7 L 410.3 231 z M 160 399.4 L 150.9 422.09999999999997 C 146.9 425.2 142.4 427.49999999999994 137.6 428.99999999999994 L 59.4 452 L 82.4 373.9 C 83.80000000000001 369 86.2 364.5 89.30000000000001 360.59999999999997 L 112.00000000000001 351.49999999999994 L 112.00000000000001 383.49999999999994 C 112.00000000000001 392.29999999999995 119.20000000000002 399.49999999999994 128 399.49999999999994 L 160 399.49999999999994 z M 362.7 18.7 L 348.3 33.2 L 325.7 55.8 L 314.3 67.1 L 348.2 101 L 410.3 163.1 L 444.2 197 L 455.5 185.7 L 478.1 163.1 L 492.6 148.6 C 517.6 123.6 517.6 83.1 492.6 58.099999999999994 L 453.3 18.7 C 428.3 -6.300000000000001 387.8 -6.300000000000001 362.8 18.7 z M 315.3 186.7 L 171.3 330.7 C 165.10000000000002 336.9 154.9 336.9 148.70000000000002 330.7 C 142.50000000000003 324.5 142.50000000000003 314.3 148.70000000000002 308.09999999999997 L 292.70000000000005 164.09999999999997 C 298.90000000000003 157.89999999999998 309.1 157.89999999999998 315.30000000000007 164.09999999999997 C 321.5000000000001 170.29999999999995 321.50000000000006 180.49999999999997 315.30000000000007 186.69999999999996 z" stroke-linecap="round" />
</g>
<g transform="matrix(NaN NaN NaN NaN 0 0)"  >
<g style=""   >
</g>
</g>
<g transform="matrix(NaN NaN NaN NaN 0 0)"  >
<g style=""   >
</g>
</g>
</svg>